<svg xmlns="http://www.w3.org/2000/svg" xmlns:xlink="http://www.w3.org/1999/xlink" width="72" height="72" viewBox="0 0 72 72">
  <defs>
    <linearGradient id="linear-gradient" x1="0.5" x2="0.5" y2="1" gradientUnits="objectBoundingBox">
      <stop offset="0" stop-color="#a8a7a8"/>
      <stop offset="1" stop-color="#c9c9c9"/>
    </linearGradient>
  </defs>
  <g id="Group_321" data-name="Group 321" transform="translate(5185 -531)">
    <g id="Group_75" data-name="Group 75" transform="translate(-5989 107)">
      <path id="Path_51" data-name="Path 51" d="M17,0H55A17,17,0,0,1,72,17V55A17,17,0,0,1,55,72H17A17,17,0,0,1,0,55V17A17,17,0,0,1,17,0Z" transform="translate(804 424)" fill="url(#linear-gradient)"/>
    </g>
    <g id="trophy" transform="translate(-5170 545)">
      <path id="Path_40" data-name="Path 40" d="M393.316,48.457a1.318,1.318,0,0,1-.733-2.415l6.149-4.1a2.633,2.633,0,0,0,1.174-2.194V35.273a2.637,2.637,0,0,0-5.273,0,1.318,1.318,0,0,1-2.637,0,5.273,5.273,0,0,1,10.547,0v4.475a5.262,5.262,0,0,1-2.348,4.388l-6.149,4.1A1.317,1.317,0,0,1,393.316,48.457Z" transform="translate(-357.543 -27.363)" fill="#eaebf1"/>
      <path id="Path_41" data-name="Path 41" d="M9.227,48.457a1.317,1.317,0,0,1-.73-.221l-6.149-4.1A5.262,5.262,0,0,1,0,39.749V35.273a5.273,5.273,0,0,1,10.547,0,1.318,1.318,0,0,1-2.637,0,2.637,2.637,0,0,0-5.273,0v4.475a2.633,2.633,0,0,0,1.174,2.194l6.149,4.1a1.318,1.318,0,0,1-.733,2.415Z" transform="translate(0 -27.363)" fill="#eaebf1"/>
      <path id="Path_42" data-name="Path 42" d="M118.686,0H92.318A1.305,1.305,0,0,0,91,1.318v15.82c0,4.456,2.373,8.016,6.7,10.046a6.6,6.6,0,0,1,3.85,5.95,1.306,1.306,0,0,0,1.318,1.318h5.273a1.306,1.306,0,0,0,1.318-1.318v-.422a6.361,6.361,0,0,1,3.059-5.449C117.024,24.706,120,22.017,120,17.139V1.318A1.305,1.305,0,0,0,118.686,0Z" transform="translate(-83.002)" fill="#dfdfdf"/>
      <path id="Path_43" data-name="Path 43" d="M270.5,1.318v15.82c0,4.878-2.979,7.567-7.488,10.125a6.361,6.361,0,0,0-3.059,5.449v.422a1.306,1.306,0,0,1-1.318,1.318H256V0h13.184A1.305,1.305,0,0,1,270.5,1.318Z" transform="translate(-233.5)" fill="#dcdcdc"/>
      <path id="Path_44" data-name="Path 44" d="M165.5,362H154.955A3.95,3.95,0,0,0,151,365.955v2.637a1.306,1.306,0,0,0,1.318,1.318h15.82a1.306,1.306,0,0,0,1.318-1.318v-2.637A3.95,3.95,0,0,0,165.5,362Z" transform="translate(-137.729 -330.184)" fill="#384949"/>
      <path id="Path_45" data-name="Path 45" d="M140.775,422h-15.82A3.95,3.95,0,0,0,121,425.955v2.637a1.306,1.306,0,0,0,1.318,1.318h21.094a1.306,1.306,0,0,0,1.318-1.318v-2.637A3.95,3.95,0,0,0,140.775,422Z" transform="translate(-110.365 -384.91)" fill="#4a696f"/>
      <path id="Path_46" data-name="Path 46" d="M181.879,66.242a1.271,1.271,0,0,0-1.081-.9l-3.85-.58-1.714-3.48a1.37,1.37,0,0,0-2.373,0l-1.714,3.48-3.85.58a1.306,1.306,0,0,0-.738,2.241l2.795,2.716-.659,3.823a1.318,1.318,0,0,0,1.9,1.4l3.454-1.819,3.454,1.819a1.242,1.242,0,0,0,1.371-.105,1.3,1.3,0,0,0,.527-1.292l-.659-3.823,2.795-2.716A1.283,1.283,0,0,0,181.879,66.242Z" transform="translate(-151.548 -55.273)" fill="#eaecf8"/>
      <path id="Path_47" data-name="Path 47" d="M259.454,75.523,256,73.7V60.6a1.33,1.33,0,0,1,1.187.686l1.714,3.48,3.85.58a1.306,1.306,0,0,1,.738,2.241L260.693,70.3l.659,3.823a1.3,1.3,0,0,1-.527,1.292A1.242,1.242,0,0,1,259.454,75.523Z" transform="translate(-233.5 -55.273)" fill="#eaecf8"/>
      <path id="Path_48" data-name="Path 48" d="M265.229,365.955v2.637a1.306,1.306,0,0,1-1.318,1.318H256V362h5.273A3.95,3.95,0,0,1,265.229,365.955Z" transform="translate(-233.5 -330.184)" fill="#293939"/>
      <path id="Path_49" data-name="Path 49" d="M267.865,425.955v2.637a1.306,1.306,0,0,1-1.318,1.318H256V422h7.91A3.95,3.95,0,0,1,267.865,425.955Z" transform="translate(-233.5 -384.91)" fill="#3e5959"/>
    </g>
  </g>
</svg>
