<svg xmlns="http://www.w3.org/2000/svg" xmlns:xlink="http://www.w3.org/1999/xlink" width="72" height="72" viewBox="0 0 72 72">
  <defs>
    <linearGradient id="linear-gradient" x1="0.5" x2="0.5" y2="1" gradientUnits="objectBoundingBox">
      <stop offset="0" stop-color="#a82fed"/>
      <stop offset="1" stop-color="#541877"/>
    </linearGradient>
  </defs>
  <g id="Group_322" data-name="Group 322" transform="translate(5185 -678)">
    <g id="Group_75" data-name="Group 75" transform="translate(-5989 254)">
      <path id="Path_1465" data-name="Path 1465" d="M17,0H55A17,17,0,0,1,72,17V55A17,17,0,0,1,55,72H17A17,17,0,0,1,0,55V17A17,17,0,0,1,17,0Z" transform="translate(804 424)" fill="url(#linear-gradient)"/>
    </g>
    <g id="_002---Give-Women_s-Rights" data-name="002---Give-Women&apos;s-Rights" transform="translate(-5169.945 695.055)">
      <path id="Shape" d="M15.045,26.319a2.179,2.179,0,0,0-3.666-1.646L7.714,28.135A2.176,2.176,0,1,0,10.7,31.3l3.666-3.461a2.163,2.163,0,0,0,.679-1.52Z" transform="translate(-1.796 -6.829)" fill="#fff"/>
      <path id="Shape-2" data-name="Shape" d="M35.59,1.009A10.776,10.776,0,0,0,27.85,3.956c-15.5,14.638-.507.479-7.331,6.924A1.5,1.5,0,0,0,20.06,11.9c-.039,1.579,2.738,2.815,4.49,1.158l5.262-4.967a2.115,2.115,0,0,1,2.99.086L43.2,19.2A10.834,10.834,0,0,0,35.59,1.009Z" transform="translate(-5.64 -0.017)" fill="#fff"/>
      <path id="Shape-3" data-name="Shape" d="M26.264,38.211A2.179,2.179,0,0,0,22.6,36.565l-3.666,3.461a2.176,2.176,0,0,0,2.987,3.166l3.666-3.461a2.159,2.159,0,0,0,.679-1.52Z" transform="translate(-5.107 -10.338)" fill="#fff"/>
      <path id="Shape-4" data-name="Shape" d="M37.041,20.685c-.07-.05.149.161-10.906-11.556a.7.7,0,0,0-1-.028l-5.262,4.965a4.3,4.3,0,0,1-6.082-.178,2.861,2.861,0,0,1,.113-4.05L19.68,4.388A10.82,10.82,0,1,0,3.935,19.232l1,1.057c.062-.07.006-.008,3.677-3.472a3.58,3.58,0,0,1,5.978,3.252,3.552,3.552,0,0,1,3.955,4.189A3.556,3.556,0,0,1,22.5,28.452a3.545,3.545,0,0,1,3.976,4.029,2.173,2.173,0,0,0,2.672-3.372l-9.392-9.951a.705.705,0,0,1,1.026-.968l9.392,9.954a2.176,2.176,0,0,0,3.165-2.988L23.944,15.2a.7.7,0,0,1,1.026-.967l9.394,9.953a2.178,2.178,0,0,0,3.759-1.436,2.728,2.728,0,0,0-1.081-2.068Z" transform="translate(0 0)" fill="#fff"/>
      <path id="Shape-5" data-name="Shape" d="M29.761,41.916a2.162,2.162,0,0,0-1.556.592l-3.666,3.462a2.176,2.176,0,1,0,2.987,3.166l3.666-3.461a2.18,2.18,0,0,0-1.431-3.759Z" transform="translate(-6.761 -12.09)" fill="#fff"/>
      <path id="Shape-6" data-name="Shape" d="M20.661,32.265A2.179,2.179,0,0,0,17,30.619L13.33,34.081a2.177,2.177,0,0,0,2.987,3.166l3.666-3.462a2.162,2.162,0,0,0,.678-1.52Z" transform="translate(-3.458 -8.584)" fill="#fff"/>
    </g>
  </g>
</svg>
