<svg xmlns="http://www.w3.org/2000/svg" xmlns:xlink="http://www.w3.org/1999/xlink" width="72" height="72" viewBox="0 0 72 72">
  <defs>
    <linearGradient id="linear-gradient" x1="0.5" x2="0.5" y2="1" gradientUnits="objectBoundingBox">
      <stop offset="0" stop-color="#67ed2f"/>
      <stop offset="1" stop-color="#187077"/>
    </linearGradient>
  </defs>
  <g id="Group_323" data-name="Group 323" transform="translate(5342 -678)">
    <g id="Group_75" data-name="Group 75" transform="translate(-6147 254)">
      <rect id="Rectangle_36" data-name="Rectangle 36" width="72" height="72" rx="17" transform="translate(805 424)" fill="url(#linear-gradient)"/>
    </g>
    <g id="clapping_1_" data-name="clapping (1)" transform="translate(-5322 695)">
      <path id="Path_57" data-name="Path 57" d="M27.81,102.5l-4.356,4.356a1.076,1.076,0,0,1-1.522,0l-.052-.052a1.076,1.076,0,0,1,0-1.522l5.93-5.93a1.67,1.67,0,0,0-2.362-2.362l-5.93,5.93a1.076,1.076,0,0,1-1.522,0l-.052-.052a1.076,1.076,0,0,1,0-1.522l7.5-7.5a1.67,1.67,0,1,0-2.362-2.362l-7.5,7.5a1.076,1.076,0,1,1-1.522-1.522l5.93-5.93a1.67,1.67,0,0,0-2.362-2.362L5.178,101.626c-.321-2.624-.725-6.6-.726-6.6h0A2.227,2.227,0,0,0,0,94.972c.651,11.076-1.291,17,3.8,22.1,3.478,3.478,9.9,4.265,13.383.787l12.989-12.989A1.67,1.67,0,1,0,27.81,102.5Z" transform="translate(0 -82.104)" fill="#fff"/>
      <path id="Path_58" data-name="Path 58" d="M2.7,59.8a4.461,4.461,0,0,1,2.576.818c-.176-1.625-.311-2.949-.311-2.949h0A2.227,2.227,0,0,0,.51,57.61c.055.934.091,1.832.115,2.695A4.464,4.464,0,0,1,2.7,59.8Z" transform="translate(-0.472 -51.324)" fill="#fff"/>
      <path id="Path_59" data-name="Path 59" d="M87.908,14.678,97.088,5.5a3.87,3.87,0,0,1,2.458-1.13l1.516-1.516A1.67,1.67,0,1,0,98.7.49L87.53,11.66a4.44,4.44,0,0,1,.18,1.131C87.736,13.039,87.81,13.756,87.908,14.678Z" transform="translate(-81.034 -0.001)" fill="#fff"/>
      <path id="Path_60" data-name="Path 60" d="M283.688,35.884a3.843,3.843,0,0,1,1.444-.4l1.517-1.517a1.67,1.67,0,0,0-2.362-2.362L282.1,33.8A3.909,3.909,0,0,1,283.688,35.884Z" transform="translate(-261.163 -28.811)" fill="#fff"/>
      <path id="Path_61" data-name="Path 61" d="M455.34,92h-2.227a1.113,1.113,0,1,0,0,2.227h2.227a1.113,1.113,0,1,0,0-2.227Z" transform="translate(-418.453 -85.172)" fill="#fff"/>
      <path id="Path_62" data-name="Path 62" d="M425.127.326a1.113,1.113,0,0,0-1.574,0l-2.227,2.227A1.113,1.113,0,1,0,422.9,4.127L425.127,1.9a1.113,1.113,0,0,0,0-1.574Z" transform="translate(-389.753 0)" fill="#fff"/>
    </g>
  </g>
</svg>
